<?xml version="1.0" encoding="UTF-8"?>
<svg width="275px" height="66px" viewBox="0 0 275 66" version="1.1" xmlns="http://www.w3.org/2000/svg" xmlns:xlink="http://www.w3.org/1999/xlink">
    <!-- Generator: sketchtool 52.5 (67469) - http://www.bohemiancoding.com/sketch -->
    <title>A59969FB-1684-4114-8D67-B0692D0AA76D</title>
    <desc>Created with sketchtool.</desc>
    <defs>
        <linearGradient x1="3.13805431%" y1="3.92914867e-14%" x2="96.5435597%" y2="98.7378071%" id="linearGradient-1">
            <stop stop-color="#FFFFFF" offset="0%"></stop>
            <stop stop-color="#D9DDE9" offset="100%"></stop>
        </linearGradient>
        <rect id="path-2" x="0" y="0" width="46" height="46" rx="23"></rect>
        <filter x="-30.4%" y="-30.4%" width="169.6%" height="169.6%" filterUnits="objectBoundingBox" id="filter-3">
            <feOffset dx="2" dy="2" in="SourceAlpha" result="shadowOffsetOuter1"></feOffset>
            <feGaussianBlur stdDeviation="5" in="shadowOffsetOuter1" result="shadowBlurOuter1"></feGaussianBlur>
            <feColorMatrix values="0 0 0 0 0.00392156863   0 0 0 0 0.0588235294   0 0 0 0 0.203921569  0 0 0 0.5 0" type="matrix" in="shadowBlurOuter1"></feColorMatrix>
        </filter>
        <linearGradient x1="-58.3543378%" y1="-228.025716%" x2="147.850307%" y2="159.328613%" id="linearGradient-4">
            <stop stop-color="#191C84" offset="0%"></stop>
            <stop stop-color="#3F5EC0" offset="100%"></stop>
        </linearGradient>
    </defs>
    <g id="X-Large" stroke="none" stroke-width="1" fill="none" fill-rule="evenodd">
        <g id="1.00-Landing" transform="translate(-82.000000, -9.000000)">
            <g id="Header">
                <g id="Logo" transform="translate(90.000000, 17.000000)">
                    <g id="logo_Icon">
                        <g id="Rectangle" fill-rule="nonzero">
                            <use fill="black" fill-opacity="1" filter="url(#filter-3)" xlink:href="#path-2"></use>
                            <use fill="url(#linearGradient-1)" xlink:href="#path-2"></use>
                        </g>
                        <path d="M15.7519517,19.4011367 L18.6142479,22.2634329 C19.0465327,22.6957178 19.0465327,23.3965899 18.6142479,23.8288747 L15.7519517,26.691171 C15.3196669,27.1234558 14.6187947,27.1234558 14.1865099,26.691171 L11.3242136,23.8288747 C10.8919288,23.3965899 10.8919288,22.6957178 11.3242136,22.2634329 L14.1865099,19.4011367 C14.6187947,18.9688519 15.3196669,18.9688519 15.7519517,19.4011367 Z M28.9008931,19.2910165 L31.8994373,22.2931834 C32.2895748,22.6836412 32.2895748,23.3163588 31.8994373,23.7068166 L28.9014732,26.7095632 C28.5111092,27.1002477 27.8779443,27.1005075 27.4872598,26.7101434 C27.4870663,26.7099501 27.4868729,26.7097567 27.4866796,26.7095632 L24.4887156,23.7068166 C24.098578,23.3163588 24.098578,22.6836412 24.4887156,22.2931834 L27.4866796,19.2904368 C27.8770437,18.8997523 28.5102086,18.8994925 28.9008931,19.2898566 C28.9010865,19.2900499 28.9012799,19.2902433 28.9014732,19.2904368 L28.9008931,19.2910165 Z M22.3637993,25.9550623 L29.6012039,33.2468835 C30.0303679,33.6792743 30.0303679,34.3803182 29.6012039,34.812709 L26.7595717,37.6757069 C26.3304077,38.1080977 25.6345954,38.1080977 25.2054315,37.6757069 L17.9680268,30.3838857 C17.5388629,29.9514949 17.5388629,29.250451 17.9680268,28.8180602 L20.8096591,25.9550623 C21.2388231,25.5226715 21.9346353,25.5226715 22.3637993,25.9550623 Z M26.7595717,8.32429308 L29.6012039,11.1872909 C30.0303679,11.6196817 30.0303679,12.3207257 29.6012039,12.7531165 L22.3637993,20.0449377 C21.9346353,20.4773285 21.238823,20.4773285 20.809659,20.0449377 L17.9680268,17.1819398 C17.5388629,16.7495491 17.5388629,16.0485051 17.9680268,15.6161143 L25.2054315,8.32429308 C25.6345955,7.89190231 26.3304078,7.89190231 26.7595717,8.32429308 Z" id="Icon" fill="url(#linearGradient-4)"></path>
                    </g>
                    <path d="M266.998073,25.0825688 C266.998073,25.2171261 266.985841,25.3944943 266.961376,25.6146789 L259.071468,25.6146789 C259.18156,26.4709523 259.557703,27.1590188 260.199908,27.6788991 C260.842113,28.1987794 261.64027,28.4587156 262.594404,28.4587156 C263.756489,28.4587156 264.692259,28.0672822 265.401743,27.2844037 L266.37422,28.4220183 C265.933851,28.9357824 265.386456,29.3272158 264.732018,29.5963303 C264.077581,29.8654448 263.346701,30 262.539358,30 C261.51183,30 260.600524,29.7889929 259.805413,29.3669725 C259.010302,28.944952 258.395629,28.3547439 257.961376,27.5963303 C257.527123,26.8379167 257.31,25.9816561 257.31,25.0275229 C257.31,24.0856222 257.521007,23.2354778 257.943028,22.4770642 C258.365048,21.7186506 258.946082,21.1284425 259.686147,20.706422 C260.426212,20.2844016 261.261066,20.0733945 262.190734,20.0733945 C263.120402,20.0733945 263.94914,20.2844016 264.676972,20.706422 C265.404805,21.1284425 265.973607,21.7186506 266.383394,22.4770642 C266.793182,23.2354778 266.998073,24.1039706 266.998073,25.0825688 Z M262.229266,21.559633 C263.073307,21.559633 263.779722,21.8195693 264.348532,22.3394495 C264.917342,22.8593298 265.250672,23.5290479 265.348532,24.3486239 L259.11,24.3486239 C259.20786,23.5168154 259.54119,22.8440393 260.11,22.3302752 C260.67881,21.8165112 261.385225,21.559633 262.229266,21.559633 Z M252.047615,30 C251.056784,30 250.173001,29.7859349 249.396239,29.3577982 C248.619476,28.9296615 248.01092,28.3394533 247.57055,27.587156 C247.130181,26.8348586 246.91,25.9816561 246.91,25.0275229 C246.91,24.0733897 247.130181,23.2201872 247.57055,22.4678899 C248.01092,21.7155926 248.619476,21.1284425 249.396239,20.706422 C250.173001,20.2844016 251.056784,20.0733945 252.047615,20.0733945 C252.928353,20.0733945 253.714278,20.2507628 254.405413,20.6055046 C255.096548,20.9602464 255.631711,21.4740028 256.010917,22.146789 L254.671468,23.0091743 C254.365656,22.5443402 253.986455,22.1957198 253.533853,21.9633028 C253.081252,21.7308857 252.579728,21.6146789 252.029266,21.6146789 C251.393177,21.6146789 250.821318,21.7553503 250.31367,22.0366972 C249.806022,22.3180442 249.408472,22.7186518 249.121009,23.2385321 C248.833546,23.7584124 248.689817,24.3547367 248.689817,25.0275229 C248.689817,25.7125417 248.833546,26.3149821 249.121009,26.8348624 C249.408472,27.3547427 249.806022,27.7553503 250.31367,28.0366972 C250.821318,28.3180442 251.393177,28.4587156 252.029266,28.4587156 C252.579728,28.4587156 253.081252,28.3425088 253.533853,28.1100917 C253.986455,27.8776747 254.365656,27.5290543 254.671468,27.0642202 L256.010917,27.9082569 C255.631711,28.5810431 255.096548,29.0978575 254.405413,29.4587156 C253.714278,29.8195737 252.928353,30 252.047615,30 Z M240.582661,20.0733945 C241.818141,20.0733945 242.799782,20.4311891 243.527615,21.146789 C244.255447,21.8623889 244.619358,22.9113081 244.619358,24.293578 L244.619358,29.8899083 L242.85789,29.8899083 L242.85789,24.4954128 C242.85789,23.5535121 242.631592,22.8440391 242.178991,22.3669725 C241.726389,21.8899059 241.078078,21.6513761 240.234037,21.6513761 C239.279903,21.6513761 238.527617,21.9296608 237.977156,22.4862385 C237.426694,23.0428162 237.151468,23.8409734 237.151468,24.8807339 L237.151468,29.8899083 L235.39,29.8899083 L235.39,20.1651376 L237.078073,20.1651376 L237.078073,21.6330275 C237.432815,21.131496 237.912933,20.7461787 238.51844,20.4770642 C239.123948,20.2079497 239.812014,20.0733945 240.582661,20.0733945 Z M228.003578,20.0733945 C229.34915,20.0733945 230.379721,20.4036664 231.095321,21.0642202 C231.810921,21.7247739 232.168716,22.7094736 232.168716,24.0183486 L232.168716,29.8899083 L230.498991,29.8899083 L230.498991,28.6055046 C230.205411,29.0581062 229.786455,29.4036685 229.24211,29.6422018 C228.697765,29.8807351 228.052511,30 227.30633,30 C226.21764,30 225.346089,29.7370057 224.691651,29.2110092 C224.037214,28.6850127 223.71,27.9938881 223.71,27.1376147 C223.71,26.2813413 224.021923,25.5932748 224.64578,25.0733945 C225.269636,24.5535142 226.260452,24.293578 227.618257,24.293578 L230.407248,24.293578 L230.407248,23.9449541 C230.407248,23.1865406 230.187066,22.6055066 229.746697,22.2018349 C229.306328,21.7981631 228.658017,21.5963303 227.801743,21.5963303 C227.226817,21.5963303 226.664131,21.6911306 226.11367,21.8807339 C225.563208,22.0703373 225.098381,22.3241574 224.719174,22.6422018 L223.985229,21.3211009 C224.486761,20.9174292 225.086143,20.6085638 225.783394,20.3944954 C226.480646,20.1804271 227.220699,20.0733945 228.003578,20.0733945 Z M227.556789,28.6422018 C228.229575,28.6422018 228.810609,28.4923562 229.299908,28.1926606 C229.789207,27.8929649 230.143944,27.4678927 230.364128,26.9174312 L230.364128,25.559633 L227.648532,25.559633 C226.15617,25.559633 225.41,26.0611571 225.41,27.0642202 C225.41,27.5535193 225.599601,27.9388365 225.978807,28.2201835 C226.358014,28.5015305 226.884003,28.6422018 227.556789,28.6422018 Z M217.302661,20.0733945 C218.538141,20.0733945 219.519782,20.4311891 220.247615,21.146789 C220.975447,21.8623889 221.339358,22.9113081 221.339358,24.293578 L221.339358,29.8899083 L219.57789,29.8899083 L219.57789,24.4954128 C219.57789,23.5535121 219.351592,22.8440391 218.898991,22.3669725 C218.446389,21.8899059 217.798078,21.6513761 216.954037,21.6513761 C215.999903,21.6513761 215.247617,21.9296608 214.697156,22.4862385 C214.146694,23.0428162 213.871468,23.8409734 213.871468,24.8807339 L213.871468,29.8899083 L212.11,29.8899083 L212.11,20.1651376 L213.798073,20.1651376 L213.798073,21.6330275 C214.152815,21.131496 214.632933,20.7461787 215.23844,20.4770642 C215.843948,20.2079497 216.532014,20.0733945 217.302661,20.0733945 Z M207.11,20.1651376 L208.871468,20.1651376 L208.871468,29.8899083 L207.11,29.8899083 L207.11,20.1651376 Z M208.002661,18.293578 C207.660151,18.293578 207.37575,18.1834873 207.14945,17.9633028 C206.923149,17.7431182 206.81,17.4740077 206.81,17.1559633 C206.81,16.8379189 206.923149,16.5657504 207.14945,16.3394495 C207.37575,16.1131487 207.660151,16 208.002661,16 C208.34517,16 208.629571,16.1070326 208.855872,16.3211009 C209.082172,16.5351693 209.195321,16.8012217 209.195321,17.1192661 C209.195321,17.4495429 209.082172,17.7278276 208.855872,17.9541284 C208.629571,18.1804293 208.34517,18.293578 208.002661,18.293578 Z M197.844862,18.6422018 L197.844862,23.1192661 L204.285229,23.1192661 L204.285229,24.6972477 L197.844862,24.6972477 L197.844862,29.8899083 L196.01,29.8899083 L196.01,17.0458716 L205.07422,17.0458716 L205.07422,18.6422018 L197.844862,18.6422018 Z M188.972385,29.3211009 C188.715503,29.5412855 188.397464,29.7094795 188.018257,29.8256881 C187.63905,29.9418966 187.247617,30 186.843945,30 C185.865347,30 185.106945,29.7370057 184.568716,29.2110092 C184.030487,28.6850127 183.761376,27.9327266 183.761376,26.9541284 L183.761376,21.6146789 L182.11,21.6146789 L182.11,20.1651376 L183.761376,20.1651376 L183.761376,18.0366972 L185.522844,18.0366972 L185.522844,20.1651376 L188.311835,20.1651376 L188.311835,21.6146789 L185.522844,21.6146789 L185.522844,26.8807339 C185.522844,27.4067305 185.654341,27.8103961 185.917339,28.0917431 C186.180338,28.3730901 186.556481,28.5137615 187.04578,28.5137615 C187.584009,28.5137615 188.04272,28.3608578 188.421927,28.0550459 L188.972385,29.3211009 Z M177.328349,30 C176.533238,30 175.768719,29.8929674 175.034771,29.6788991 C174.300822,29.4648307 173.725904,29.1926622 173.31,28.8623853 L174.043945,27.4678899 C174.472082,27.7737018 174.991954,28.0183477 175.603578,28.2018349 C176.215202,28.385322 176.832933,28.4770642 177.456789,28.4770642 C178.998081,28.4770642 179.768716,28.0367017 179.768716,27.1559633 C179.768716,26.8623839 179.664741,26.6299703 179.456789,26.4587156 C179.248837,26.2874609 178.988901,26.1620799 178.676972,26.0825688 C178.365044,26.0030577 177.921624,25.9143736 177.346697,25.8165138 C176.563819,25.694189 175.924681,25.5535176 175.429266,25.3944954 C174.933851,25.2354732 174.508779,24.9663628 174.154037,24.587156 C173.799295,24.2079492 173.621927,23.6758444 173.621927,22.9908257 C173.621927,22.1100873 173.988895,21.4036724 174.722844,20.8715596 C175.456793,20.3394469 176.441492,20.0733945 177.676972,20.0733945 C178.325294,20.0733945 178.973605,20.1529044 179.621927,20.3119266 C180.270248,20.4709488 180.802353,20.6850139 181.218257,20.9541284 L180.465963,22.3486239 C179.670852,21.8348598 178.735082,21.5779817 177.658624,21.5779817 C176.912443,21.5779817 176.343641,21.7003046 175.952202,21.9449541 C175.560763,22.1896037 175.365046,22.5137594 175.365046,22.9174312 C175.365046,23.2354756 175.475137,23.4862376 175.695321,23.6697248 C175.915506,23.8532119 176.187674,23.9877672 176.511835,24.0733945 C176.835996,24.1590218 177.291648,24.2568802 177.878807,24.3669725 C178.661686,24.5015297 179.294707,24.6452592 179.77789,24.7981651 C180.261073,24.9510711 180.673913,25.2110073 181.016422,25.5779817 C181.358931,25.944956 181.530183,26.4587123 181.530183,27.1192661 C181.530183,28.0000044 181.15404,28.7003032 180.401743,29.2201835 C179.649446,29.7400638 178.624991,30 177.328349,30 Z M168.698073,21.7981651 C169.003885,21.2354712 169.45648,20.8073409 170.055872,20.5137615 C170.655263,20.220182 171.383084,20.0733945 172.239358,20.0733945 L172.239358,21.7798165 C172.141498,21.767584 172.006943,21.7614679 171.835688,21.7614679 C170.881555,21.7614679 170.132327,22.0458687 169.587982,22.6146789 C169.043636,23.1834891 168.771468,23.9938785 168.771468,25.0458716 L168.771468,29.8899083 L167.01,29.8899083 L167.01,20.1651376 L168.698073,20.1651376 L168.698073,21.7981651 Z M162.01,20.1651376 L163.771468,20.1651376 L163.771468,29.8899083 L162.01,29.8899083 L162.01,20.1651376 Z M162.902661,18.293578 C162.560151,18.293578 162.27575,18.1834873 162.04945,17.9633028 C161.823149,17.7431182 161.71,17.4740077 161.71,17.1559633 C161.71,16.8379189 161.823149,16.5657504 162.04945,16.3394495 C162.27575,16.1131487 162.560151,16 162.902661,16 C163.24517,16 163.529571,16.1070326 163.755872,16.3211009 C163.982172,16.5351693 164.095321,16.8012217 164.095321,17.1192661 C164.095321,17.4495429 163.982172,17.7278276 163.755872,17.9541284 C163.529571,18.1804293 163.24517,18.293578 162.902661,18.293578 Z M152.744862,18.6422018 L152.744862,23.1192661 L159.185229,23.1192661 L159.185229,24.6972477 L152.744862,24.6972477 L152.744862,29.8899083 L150.91,29.8899083 L150.91,17.0458716 L159.97422,17.0458716 L159.97422,18.6422018 L152.744862,18.6422018 Z M138.942661,20.0733945 C140.178141,20.0733945 141.159782,20.4311891 141.887615,21.146789 C142.615447,21.8623889 142.979358,22.9113081 142.979358,24.293578 L142.979358,29.8899083 L141.21789,29.8899083 L141.21789,24.4954128 C141.21789,23.5535121 140.991592,22.8440391 140.538991,22.3669725 C140.086389,21.8899059 139.438078,21.6513761 138.594037,21.6513761 C137.639903,21.6513761 136.887617,21.9296608 136.337156,22.4862385 C135.786694,23.0428162 135.511468,23.8409734 135.511468,24.8807339 L135.511468,29.8899083 L133.75,29.8899083 L133.75,20.1651376 L135.438073,20.1651376 L135.438073,21.6330275 C135.792815,21.131496 136.272933,20.7461787 136.87844,20.4770642 C137.483948,20.2079497 138.172014,20.0733945 138.942661,20.0733945 Z M126.718654,20.0733945 C128.064227,20.0733945 129.094798,20.4036664 129.810398,21.0642202 C130.525997,21.7247739 130.883792,22.7094736 130.883792,24.0183486 L130.883792,29.8899083 L129.214067,29.8899083 L129.214067,28.6055046 C128.920488,29.0581062 128.501532,29.4036685 127.957187,29.6422018 C127.412841,29.8807351 126.767588,30 126.021407,30 C124.932716,30 124.061165,29.7370057 123.406728,29.2110092 C122.75229,28.6850127 122.425076,27.9938881 122.425076,27.1376147 C122.425076,26.2813413 122.737,25.5932748 123.360856,25.0733945 C123.984713,24.5535142 124.975528,24.293578 126.333333,24.293578 L129.122324,24.293578 L129.122324,23.9449541 C129.122324,23.1865406 128.902143,22.6055066 128.461774,22.2018349 C128.021405,21.7981631 127.373093,21.5963303 126.51682,21.5963303 C125.941893,21.5963303 125.379208,21.6911306 124.828746,21.8807339 C124.278285,22.0703373 123.813458,22.3241574 123.434251,22.6422018 L122.700306,21.3211009 C123.201837,20.9174292 123.80122,20.6085638 124.498471,20.3944954 C125.195722,20.1804271 125.935776,20.0733945 126.718654,20.0733945 Z M126.314985,28.6422018 C126.987771,28.6422018 127.568805,28.4923562 128.058104,28.1926606 C128.547403,27.8929649 128.90214,27.4678927 129.122324,26.9174312 L129.122324,25.559633 L126.406728,25.559633 C124.914366,25.559633 124.168196,26.0611571 124.168196,27.0642202 C124.168196,27.5535193 124.357796,27.9388365 124.737003,28.2201835 C125.11621,28.5015305 125.642198,28.6422018 126.314985,28.6422018 Z M117.040775,30 C116.049944,30 115.166161,29.7859349 114.389399,29.3577982 C113.612636,28.9296615 113.00408,28.3394533 112.56371,27.587156 C112.123341,26.8348586 111.90316,25.9816561 111.90316,25.0275229 C111.90316,24.0733897 112.123341,23.2201872 112.56371,22.4678899 C113.00408,21.7155926 113.612636,21.1284425 114.389399,20.706422 C115.166161,20.2844016 116.049944,20.0733945 117.040775,20.0733945 C117.921513,20.0733945 118.707438,20.2507628 119.398573,20.6055046 C120.089708,20.9602464 120.624871,21.4740028 121.004077,22.146789 L119.664628,23.0091743 C119.358816,22.5443402 118.979615,22.1957198 118.527013,21.9633028 C118.074412,21.7308857 117.572888,21.6146789 117.022426,21.6146789 C116.386337,21.6146789 115.814478,21.7553503 115.30683,22.0366972 C114.799182,22.3180442 114.401632,22.7186518 114.114169,23.2385321 C113.826706,23.7584124 113.682977,24.3547367 113.682977,25.0275229 C113.682977,25.7125417 113.826706,26.3149821 114.114169,26.8348624 C114.401632,27.3547427 114.799182,27.7553503 115.30683,28.0366972 C115.814478,28.3180442 116.386337,28.4587156 117.022426,28.4587156 C117.572888,28.4587156 118.074412,28.3425088 118.527013,28.1100917 C118.979615,27.8776747 119.358816,27.5290543 119.664628,27.0642202 L121.004077,27.9082569 C120.624871,28.5810431 120.089708,29.0978575 119.398573,29.4587156 C118.707438,29.8195737 117.921513,30 117.040775,30 Z M107.784913,20.1651376 L109.546381,20.1651376 L109.546381,29.8899083 L107.784913,29.8899083 L107.784913,20.1651376 Z M108.665647,18.293578 C108.323138,18.293578 108.038737,18.1834873 107.812436,17.9633028 C107.586135,17.7431182 107.472987,17.4740077 107.472987,17.1559633 C107.472987,16.8379189 107.586135,16.5657504 107.812436,16.3394495 C108.038737,16.1131487 108.323138,16 108.665647,16 C109.008157,16 109.292557,16.1070326 109.518858,16.3211009 C109.745159,16.5351693 109.858308,16.8012217 109.858308,17.1192661 C109.858308,17.4495429 109.745159,17.7278276 109.518858,17.9541284 C109.292557,18.1804293 109.008157,18.293578 108.665647,18.293578 Z M102.180428,21.7981651 C102.48624,21.2354712 102.938835,20.8073409 103.538226,20.5137615 C104.137618,20.220182 104.865439,20.0733945 105.721713,20.0733945 L105.721713,21.7798165 C105.623853,21.767584 105.489297,21.7614679 105.318043,21.7614679 C104.36391,21.7614679 103.614682,22.0458687 103.070336,22.6146789 C102.525991,23.1834891 102.253823,23.9938785 102.253823,25.0458716 L102.253823,29.8899083 L100.492355,29.8899083 L100.492355,20.1651376 L102.180428,20.1651376 L102.180428,21.7981651 Z M98.1539246,25.0825688 C98.1539246,25.2171261 98.1416923,25.3944943 98.1172273,25.6146789 L90.2273191,25.6146789 C90.3374114,26.4709523 90.7135544,27.1590188 91.3557594,27.6788991 C91.9979645,28.1987794 92.7961216,28.4587156 93.7502548,28.4587156 C94.9123402,28.4587156 95.8481106,28.0672822 96.5575943,27.2844037 L97.5300714,28.4220183 C97.0897022,28.9357824 96.542307,29.3272158 95.8878695,29.5963303 C95.233432,29.8654448 94.5025525,30 93.695209,30 C92.6676809,30 91.756375,29.7889929 90.961264,29.3669725 C90.166153,28.944952 89.5514803,28.3547439 89.1172273,27.5963303 C88.6829744,26.8379167 88.4658512,25.9816561 88.4658512,25.0275229 C88.4658512,24.0856222 88.6768582,23.2354778 89.0988787,22.4770642 C89.5208992,21.7186506 90.1019331,21.1284425 90.841998,20.706422 C91.5820628,20.2844016 92.4169169,20.0733945 93.3465851,20.0733945 C94.2762534,20.0733945 95.1049913,20.2844016 95.8328236,20.706422 C96.560656,21.1284425 97.1294577,21.7186506 97.5392457,22.4770642 C97.9490336,23.2354778 98.1539246,24.1039706 98.1539246,25.0825688 Z M93.3465851,21.559633 C92.5025442,21.559633 91.7961292,21.8165112 91.2273191,22.3302752 C90.6585089,22.8440393 90.3251789,23.5168154 90.2273191,24.3486239 L96.4658512,24.3486239 C96.3679914,23.5290479 96.0346614,22.8593298 95.4658512,22.3394495 C94.897041,21.8195693 94.190626,21.559633 93.3465851,21.559633 Z M82.1824669,20.0733945 C83.4057146,20.0733945 84.3751238,20.428131 85.0907237,21.1376147 C85.8063237,21.8470983 86.1641182,22.8990756 86.1641182,24.293578 L86.1641182,29.8899083 L84.4026504,29.8899083 L84.4026504,24.4954128 C84.4026504,23.5535121 84.1855271,22.8440391 83.7512742,22.3669725 C83.3170213,21.8899059 82.6962324,21.6513761 81.8888889,21.6513761 C80.9959181,21.6513761 80.286445,21.9296608 79.7604485,22.4862385 C79.234452,23.0428162 78.9714577,23.8409734 78.9714577,24.8807339 L78.9714577,29.8899083 L77.2099898,29.8899083 L77.2099898,24.4954128 C77.2099898,23.5535121 76.9928666,22.8440391 76.5586137,22.3669725 C76.1243607,21.8899059 75.5035718,21.6513761 74.6962283,21.6513761 C73.8032575,21.6513761 73.0937845,21.9296608 72.567788,22.4862385 C72.0417915,23.0428162 71.7787971,23.8409734 71.7787971,24.8807339 L71.7787971,29.8899083 L70.0173293,29.8899083 L70.0173293,20.1651376 L71.7054026,20.1651376 L71.7054026,21.6146789 C72.0601445,21.1131473 72.5249716,20.7308882 73.0998981,20.4678899 C73.6748245,20.2048917 74.3292522,20.0733945 75.0632008,20.0733945 C75.8216144,20.0733945 76.4943905,20.2262982 77.0815494,20.5321101 C77.6687083,20.837922 78.1213032,21.2844007 78.4393476,21.8715596 C78.8063219,21.3088657 79.3170202,20.8685031 79.9714577,20.5504587 C80.6258952,20.2324143 81.3628909,20.0733945 82.1824669,20.0733945 Z M65.1284404,26.6788991 L58.3027523,26.6788991 L56.8899083,29.8899083 L55,29.8899083 L60.8165138,17.0458716 L62.6330275,17.0458716 L68.4678899,29.8899083 L66.5412844,29.8899083 L65.1284404,26.6788991 Z M64.4862385,25.2110092 L61.7155963,18.9174312 L58.9449541,25.2110092 L64.4862385,25.2110092 Z" id="logo_Type" fill="#FFFFFF"></path>
                </g>
            </g>
        </g>
    </g>
</svg>